<?xml version="1.0" encoding="utf-8"?>
<!-- Generator: Adobe Illustrator 21.1.0, SVG Export Plug-In . SVG Version: 6.00 Build 0)  -->
<svg version="1.1" id="Layer_1" xmlns="http://www.w3.org/2000/svg" xmlns:xlink="http://www.w3.org/1999/xlink" x="0px" y="0px"
	 width="48px" height="48px" viewBox="0 0 48 48" style="enable-background:new 0 0 48 48;" xml:space="preserve">
<style type="text/css">
	.st0{fill:#4D4C4C;}
	.st1{fill:#FFFFFF;}
</style>
<circle class="st0" cx="24" cy="24" r="24"/>
<path class="st1" d="M35.2,18.5c0-0.1,0-0.2-0.1-0.3v-0.1c-0.3-0.9-1.1-1.5-2.1-1.5h0.2c0,0-3.9-0.6-9.2-0.6c-5.2,0-9.2,0.6-9.2,0.6
	H15c-1,0-1.8,0.6-2.1,1.5v0.1c0,0.1,0,0.2-0.1,0.3c-0.1,1-0.4,3.1-0.4,5.5s0.3,4.5,0.4,5.5c0,0.1,0,0.2,0.1,0.3v0.1
	c0.3,0.9,1.1,1.5,2.1,1.5h-0.2c0,0,3.9,0.6,9.2,0.6c5.2,0,9.2-0.6,9.2-0.6H33c1,0,1.8-0.6,2.1-1.5v-0.1c0-0.1,0-0.2,0.1-0.3
	c0.1-1,0.4-3.1,0.4-5.5S35.4,19.5,35.2,18.5z M27.4,24.5l-4.7,3.4C22.6,28,22.5,28,22.4,28s-0.2,0-0.3-0.1c-0.2-0.1-0.3-0.3-0.3-0.5
	v-6.8c0-0.2,0.1-0.4,0.3-0.5c0.2-0.1,0.4-0.1,0.6,0l4.7,3.4c0.1,0.1,0.2,0.3,0.2,0.5C27.7,24.2,27.6,24.4,27.4,24.5z"/>
</svg>
