<?xml version="1.0" encoding="utf-8"?>
<!-- Generator: Adobe Illustrator 21.1.0, SVG Export Plug-In . SVG Version: 6.00 Build 0)  -->
<svg version="1.1" id="Layer_1" xmlns="http://www.w3.org/2000/svg" xmlns:xlink="http://www.w3.org/1999/xlink" x="0px" y="0px"
	 width="32px" height="32px" viewBox="0 0 32 32" style="enable-background:new 0 0 32 32;" xml:space="preserve">
<style type="text/css">
	.st0{fill:#4D4C4C;}
	.st1{fill:#FFFFFF;}
</style>
<g id="Flat_copy">
	<g>
		<path class="st0" d="M16,0C7.2,0,0,7.2,0,16c0,8.8,7.2,16,16,16s16-7.2,16-16C32,7.2,24.8,0,16,0z"/>
	</g>
	<path class="st1" d="M21.7,22.6h2.9c0-8.4-6.9-15.3-15.3-15.3v2.9C16.2,10.3,21.7,15.8,21.7,22.6z M11.4,22.7c1.1,0,2-0.9,2-2
		c0-1.1-0.9-2-2-2c-1.1,0-2,0.9-2,2C9.4,21.7,10.3,22.7,11.4,22.7z M16.5,22.6L16.5,22.6h2.9c0-5.6-4.5-10.1-10.1-10.1v2.9
		c1.9,0,3.7,0.7,5.1,2.1C15.8,18.9,16.5,20.7,16.5,22.6z"/>
</g>
</svg>
